<mxfile host="app.diagrams.net" modified="2023-08-22T02:43:18.155Z" agent="Mozilla/5.0 (Windows NT 10.0; Win64; x64) AppleWebKit/537.36 (KHTML, like Gecko) Chrome/116.0.0.0 Safari/537.36" etag="wvudw3rMq0c9yn4DzWRh" version="21.6.8" type="github">
  <diagram name="Page-1" id="IIr6gQ02UKhQqkoVfn3p">
    <mxGraphModel dx="880" dy="470" grid="1" gridSize="10" guides="1" tooltips="1" connect="1" arrows="1" fold="1" page="1" pageScale="1" pageWidth="850" pageHeight="1100" math="0" shadow="0">
      <root>
        <mxCell id="0" />
        <mxCell id="1" parent="0" />
        <mxCell id="1yUvSm0mxr_RZJm8_Win-1" value="" style="rounded=0;whiteSpace=wrap;html=1;" vertex="1" parent="1">
          <mxGeometry x="320" y="70" width="235" height="400" as="geometry" />
        </mxCell>
        <mxCell id="1yUvSm0mxr_RZJm8_Win-2" value="PLAYER 1&lt;br&gt;(Komputer)" style="shape=umlActor;verticalLabelPosition=bottom;verticalAlign=top;html=1;outlineConnect=0;fillColor=#a0522d;strokeColor=#6D1F00;fontColor=#ffffff;" vertex="1" parent="1">
          <mxGeometry x="120" y="130" width="80" height="150" as="geometry" />
        </mxCell>
        <mxCell id="1yUvSm0mxr_RZJm8_Win-3" value="PLAYER 2&amp;nbsp;&lt;br&gt;(User)" style="shape=umlActor;verticalLabelPosition=bottom;verticalAlign=top;html=1;outlineConnect=0;fillColor=#f0a30a;fontColor=#000000;strokeColor=#BD7000;" vertex="1" parent="1">
          <mxGeometry x="680" y="130" width="80" height="150" as="geometry" />
        </mxCell>
        <mxCell id="1yUvSm0mxr_RZJm8_Win-14" value="Game Tebak Angka" style="text;html=1;strokeColor=none;fillColor=none;align=center;verticalAlign=middle;whiteSpace=wrap;rounded=0;" vertex="1" parent="1">
          <mxGeometry x="340" y="80" width="180" height="30" as="geometry" />
        </mxCell>
        <mxCell id="1yUvSm0mxr_RZJm8_Win-17" value="Random Angka&amp;nbsp;" style="ellipse;whiteSpace=wrap;html=1;" vertex="1" parent="1">
          <mxGeometry x="347.5" y="130" width="165" height="70" as="geometry" />
        </mxCell>
        <mxCell id="1yUvSm0mxr_RZJm8_Win-20" value="Tebak Angka" style="ellipse;whiteSpace=wrap;html=1;" vertex="1" parent="1">
          <mxGeometry x="345" y="320" width="170" height="70" as="geometry" />
        </mxCell>
        <mxCell id="1yUvSm0mxr_RZJm8_Win-22" value="" style="endArrow=none;html=1;rounded=0;entryX=0;entryY=0.5;entryDx=0;entryDy=0;" edge="1" parent="1" source="1yUvSm0mxr_RZJm8_Win-2" target="1yUvSm0mxr_RZJm8_Win-17">
          <mxGeometry width="50" height="50" relative="1" as="geometry">
            <mxPoint x="200" y="240" as="sourcePoint" />
            <mxPoint x="340" y="170" as="targetPoint" />
            <Array as="points">
              <mxPoint x="220" y="200" />
              <mxPoint x="260" y="160" />
            </Array>
          </mxGeometry>
        </mxCell>
        <mxCell id="1yUvSm0mxr_RZJm8_Win-23" value="" style="endArrow=none;html=1;rounded=0;exitX=1;exitY=0.5;exitDx=0;exitDy=0;" edge="1" parent="1" source="1yUvSm0mxr_RZJm8_Win-20" target="1yUvSm0mxr_RZJm8_Win-3">
          <mxGeometry width="50" height="50" relative="1" as="geometry">
            <mxPoint x="570" y="320" as="sourcePoint" />
            <mxPoint x="630" y="310" as="targetPoint" />
            <Array as="points">
              <mxPoint x="610" y="310" />
            </Array>
          </mxGeometry>
        </mxCell>
      </root>
    </mxGraphModel>
  </diagram>
</mxfile>
